{"title":"The Wedding Ringer [2015] (No Cinavia) 1080p","uid":11829921,"size":3443966195,"categoryP":"video","categoryS":"hd___movies","magnet":"?xt=urn:btih:12ba72ec87ab2889291b3872d8b0593d0934d76d&amp;dn=The+Wedding+Ringer+%5B2015%5D+%28No+Cinavia%29+1080p&amp;tr=udp%3A%2F%2Ftracker.openbittorrent.com%3A80&amp;tr=udp%3A%2F%2Fopen.demonii.com%3A1337&amp;tr=udp%3A%2F%2Ftracker.coppersurfer.tk%3A6969&amp;tr=udp%3A%2F%2Fexodus.desync.com%3A6969","seeders":9,"leechers":0,"uploader":"AlienMethod","files":7,"time":1429594133,"description":"x264/mp4\nCinavia Removed/CinExHD\n6-Channel AC3@448kbps (audio 1)\n2-Channel AAC@128kbps (audio 2)\nEnglish Subs Incl.\n\n\n&quot;Two weeks shy of his wedding, a socially awkward guy enters into a charade by \nhiring the owner of a company that provides best men for grooms in need.&quot;\n\n\n\nGeneral\nComplete name : F:TorrentsThe Wedding Ringer [2015] (NoCinavia) 1080p\nThe Wedding Ringer [2015] (NoCinavia) 1080p.mp4\nFormat : MPEG-4\nFormat profile : Base Media\nCodec ID : isom\nFile size : 3.21 GiB\nDuration : 1h 41mn\nOverall bit rate mode : Variable\nOverall bit rate : 4 527 Kbps\nEncoded date : UTC 2015-04-20 15:20:34\nTagged date : UTC 2015-04-20 15:20:34\nWriting application : My MP4Box GUI 0.6.0.6 \n\nVideo\nID : 1\nFormat : AVC\nFormat/Info : Advanced Video Codec\nFormat profile : &lt;a class=&quot;__cf_email__&quot; href=&quot;/cdn-cgi/l/email-protection&quot; data-cfemail=&quot;eea6878986aea2dac0df&quot;&gt;[email&amp;#160;protected]&lt;/a&gt;&lt;script cf-hash='f9e31' type=&quot;text/javascript&quot;&gt;\n/* &lt;![CDATA[ */!function(){try{var t=&quot;currentScript&quot;in document?document.currentScript:function(){for(var t=document.getElementsByTagName(&quot;script&quot;),e=t.length;e--;)if(t[e].getAttribute(&quot;cf-hash&quot;))return t[e]}();if(t&amp;&amp;t.previousSibling){var e,r,n,i,c=t.previousSibling,a=c.getAttribute(&quot;data-cfemail&quot;);if(a){for(e=&quot;&quot;,r=parseInt(a.substr(0,2),16),n=2;a.length-n;n+=2)i=parseInt(a.substr(n,2),16)^r,e+=String.fromCharCode(i);e=document.createTextNode(e),c.parentNode.replaceChild(e,c)}}}catch(u){}}();/* ]]&gt; */&lt;/script&gt;\nFormat settings, CABAC : Yes\nFormat settings, ReFrames : 4 frames\nCodec ID : avc1\nCodec ID/Info : Advanced Video Coding\nDuration : 1h 41mn\nBit rate : 4 000 Kbps\nMaximum bit rate : 25.3 Mbps\nWidth : 1 920 pixels\nHeight : 1 080 pixels\nDisplay aspect ratio : 16:9\nFrame rate mode : Constant\nFrame rate : 23.976 fps\nColor space : YUV\nChroma subsampling : 4:2:0\nBit depth : 8 bits\nScan type : Progressive\nBits/(Pixel*Frame) : 0.080\nStream size : 2.80 GiB (87%)\nTitle : Wedding Ringer (CinEx)_track1.h264\nWriting library : x264 core 142 r2479 dd79a61\nEncoded date : UTC 2015-04-20 15:20:34\nTagged date : UTC 2015-04-20 15:20:50\nColor primaries : BT.709\nTransfer characteristics : BT.709\nMatrix coefficients : BT.709\n\nAudio #1\nID : 2\nFormat : AC-3\nFormat/Info : Audio Coding 3\nMode extension : CM (complete main)\nFormat settings, Endianness : Big\nCodec ID : ac-3\nDuration : 1h 41mn\nBit rate mode : Constant\nBit rate : 448 Kbps\nChannel(s) : 6 channels\nChannel positions : Front: L C R, Side: L R, LFE\nSampling rate : 48.0 KHz\nBit depth : 16 bits\nCompression mode : Lossy\nStream size : 325 MiB (10%)\nTitle : Wedding Ringer (CinEx)AC3.ac3\nEncoded date : UTC 2015-04-20 15:20:46\nTagged date : UTC 2015-04-20 15:20:50\n\nAudio #2\nID : 3\nFormat : AAC\nFormat/Info : Advanced Audio Codec\nFormat profile : LC\nCodec ID : 40\nDuration : 1h 41mn\nBit rate mode : Variable\nBit rate : 117 Kbps\nMaximum bit rate : 156 Kbps\nChannel(s) : 2 channels\nChannel positions : Front: L R\nSampling rate : 48.0 KHz\nCompression mode : Lossy\nStream size : 85.2 MiB (3%)\nTitle : Wedding Ringer (CinEx)AAC.m4a\nEncoded date : UTC 2015-04-20 15:20:49\nTagged date : UTC 2015-04-20 15:20:50","torrent":{"xt":"urn:btih:12ba72ec87ab2889291b3872d8b0593d0934d76d","amp;dn":"The+Wedding+Ringer+%5B2015%5D+%28No+Cinavia%29+1080p","amp;tr":["udp%3A%2F%2Ftracker.openbittorrent.com%3A80","udp%3A%2F%2Fopen.demonii.com%3A1337","udp%3A%2F%2Ftracker.coppersurfer.tk%3A6969","udp%3A%2F%2Fexodus.desync.com%3A6969"],"infoHash":"12ba72ec87ab2889291b3872d8b0593d0934d76d","infoHashBuffer":{"type":"Buffer","data":[18,186,114,236,135,171,40,137,41,27,56,114,216,176,89,61,9,52,215,109]},"announce":[],"urlList":[]}}